<?xml version="1.0" encoding="utf-8" standalone="no"?>
<!DOCTYPE svg PUBLIC "-//W3C//DTD SVG 1.1//EN"
  "http://www.w3.org/Graphics/SVG/1.1/DTD/svg11.dtd">
<svg xmlns:xlink="http://www.w3.org/1999/xlink" width="496.8pt" height="316.8pt" viewBox="0 0 496.8 316.8" xmlns="http://www.w3.org/2000/svg" version="1.1">
 <metadata>
  <rdf:RDF xmlns:dc="http://purl.org/dc/elements/1.1/" xmlns:cc="http://creativecommons.org/ns#" xmlns:rdf="http://www.w3.org/1999/02/22-rdf-syntax-ns#">
   <cc:Work>
    <dc:type rdf:resource="http://purl.org/dc/dcmitype/StillImage"/>
    <dc:date>2026-07-17T16:30:51.837363</dc:date>
    <dc:format>image/svg+xml</dc:format>
    <dc:creator>
     <cc:Agent>
      <dc:title>Matplotlib v3.10.9, https://matplotlib.org/</dc:title>
     </cc:Agent>
    </dc:creator>
   </cc:Work>
  </rdf:RDF>
 </metadata>
 <defs>
  <style type="text/css">*{stroke-linejoin: round; stroke-linecap: butt}</style>
 </defs>
 <g id="figure_1">
  <g id="patch_1">
   <path d="M 0 316.8 
L 496.8 316.8 
L 496.8 0 
L 0 0 
z
" style="fill: #ffffff"/>
  </g>
  <g id="axes_1">
   <g id="patch_2">
    <path d="M 42.195625 279.811563 
L 489.6 279.811563 
L 489.6 22.318125 
L 42.195625 22.318125 
z
" style="fill: #ffffff"/>
   </g>
   <g id="matplotlib.axis_1">
    <g id="xtick_1">
     <g id="line2d_1">
      <path d="M 58.43541 279.811563 
L 58.43541 22.318125 
" clip-path="url(#pa831cfc3d2)" style="fill: none; stroke: #b0b0b0; stroke-opacity: 0.3; stroke-width: 0.5; stroke-linecap: square"/>
     </g>
     <g id="line2d_2">
      <defs>
       <path id="mc7e90219a9" d="M 0 0 
L 0 3.5 
" style="stroke: #000000; stroke-width: 0.8"/>
      </defs>
      <g>
       <use xlink:href="#mc7e90219a9" x="58.43541" y="279.811563" style="stroke: #000000; stroke-width: 0.8"/>
      </g>
     </g>
     <g id="text_1">
      <!-- 0.0 -->
      <g transform="translate(51.279004 293.650156) scale(0.09 -0.09)">
       <defs>
        <path id="DejaVuSans-30" d="M 2034 4250 
Q 1547 4250 1301 3770 
Q 1056 3291 1056 2328 
Q 1056 1369 1301 889 
Q 1547 409 2034 409 
Q 2525 409 2770 889 
Q 3016 1369 3016 2328 
Q 3016 3291 2770 3770 
Q 2525 4250 2034 4250 
z
M 2034 4750 
Q 2819 4750 3233 4129 
Q 3647 3509 3647 2328 
Q 3647 1150 3233 529 
Q 2819 -91 2034 -91 
Q 1250 -91 836 529 
Q 422 1150 422 2328 
Q 422 3509 836 4129 
Q 1250 4750 2034 4750 
z
" transform="scale(0.015625)"/>
        <path id="DejaVuSans-2e" d="M 684 794 
L 1344 794 
L 1344 0 
L 684 0 
L 684 794 
z
" transform="scale(0.015625)"/>
       </defs>
       <use xlink:href="#DejaVuSans-30"/>
       <use xlink:href="#DejaVuSans-2e" transform="translate(63.623047 0)"/>
       <use xlink:href="#DejaVuSans-30" transform="translate(95.410156 0)"/>
      </g>
     </g>
    </g>
    <g id="xtick_2">
     <g id="line2d_3">
      <path d="M 140.601016 279.811563 
L 140.601016 22.318125 
" clip-path="url(#pa831cfc3d2)" style="fill: none; stroke: #b0b0b0; stroke-opacity: 0.3; stroke-width: 0.5; stroke-linecap: square"/>
     </g>
     <g id="line2d_4">
      <g>
       <use xlink:href="#mc7e90219a9" x="140.601016" y="279.811563" style="stroke: #000000; stroke-width: 0.8"/>
      </g>
     </g>
     <g id="text_2">
      <!-- 0.2 -->
      <g transform="translate(133.44461 293.650156) scale(0.09 -0.09)">
       <defs>
        <path id="DejaVuSans-32" d="M 1228 531 
L 3431 531 
L 3431 0 
L 469 0 
L 469 531 
Q 828 903 1448 1529 
Q 2069 2156 2228 2338 
Q 2531 2678 2651 2914 
Q 2772 3150 2772 3378 
Q 2772 3750 2511 3984 
Q 2250 4219 1831 4219 
Q 1534 4219 1204 4116 
Q 875 4013 500 3803 
L 500 4441 
Q 881 4594 1212 4672 
Q 1544 4750 1819 4750 
Q 2544 4750 2975 4387 
Q 3406 4025 3406 3419 
Q 3406 3131 3298 2873 
Q 3191 2616 2906 2266 
Q 2828 2175 2409 1742 
Q 1991 1309 1228 531 
z
" transform="scale(0.015625)"/>
       </defs>
       <use xlink:href="#DejaVuSans-30"/>
       <use xlink:href="#DejaVuSans-2e" transform="translate(63.623047 0)"/>
       <use xlink:href="#DejaVuSans-32" transform="translate(95.410156 0)"/>
      </g>
     </g>
    </g>
    <g id="xtick_3">
     <g id="line2d_5">
      <path d="M 222.766621 279.811563 
L 222.766621 22.318125 
" clip-path="url(#pa831cfc3d2)" style="fill: none; stroke: #b0b0b0; stroke-opacity: 0.3; stroke-width: 0.5; stroke-linecap: square"/>
     </g>
     <g id="line2d_6">
      <g>
       <use xlink:href="#mc7e90219a9" x="222.766621" y="279.811563" style="stroke: #000000; stroke-width: 0.8"/>
      </g>
     </g>
     <g id="text_3">
      <!-- 0.4 -->
      <g transform="translate(215.610215 293.650156) scale(0.09 -0.09)">
       <defs>
        <path id="DejaVuSans-34" d="M 2419 4116 
L 825 1625 
L 2419 1625 
L 2419 4116 
z
M 2253 4666 
L 3047 4666 
L 3047 1625 
L 3713 1625 
L 3713 1100 
L 3047 1100 
L 3047 0 
L 2419 0 
L 2419 1100 
L 313 1100 
L 313 1709 
L 2253 4666 
z
" transform="scale(0.015625)"/>
       </defs>
       <use xlink:href="#DejaVuSans-30"/>
       <use xlink:href="#DejaVuSans-2e" transform="translate(63.623047 0)"/>
       <use xlink:href="#DejaVuSans-34" transform="translate(95.410156 0)"/>
      </g>
     </g>
    </g>
    <g id="xtick_4">
     <g id="line2d_7">
      <path d="M 304.932227 279.811563 
L 304.932227 22.318125 
" clip-path="url(#pa831cfc3d2)" style="fill: none; stroke: #b0b0b0; stroke-opacity: 0.3; stroke-width: 0.5; stroke-linecap: square"/>
     </g>
     <g id="line2d_8">
      <g>
       <use xlink:href="#mc7e90219a9" x="304.932227" y="279.811563" style="stroke: #000000; stroke-width: 0.8"/>
      </g>
     </g>
     <g id="text_4">
      <!-- 0.6 -->
      <g transform="translate(297.77582 293.650156) scale(0.09 -0.09)">
       <defs>
        <path id="DejaVuSans-36" d="M 2113 2584 
Q 1688 2584 1439 2293 
Q 1191 2003 1191 1497 
Q 1191 994 1439 701 
Q 1688 409 2113 409 
Q 2538 409 2786 701 
Q 3034 994 3034 1497 
Q 3034 2003 2786 2293 
Q 2538 2584 2113 2584 
z
M 3366 4563 
L 3366 3988 
Q 3128 4100 2886 4159 
Q 2644 4219 2406 4219 
Q 1781 4219 1451 3797 
Q 1122 3375 1075 2522 
Q 1259 2794 1537 2939 
Q 1816 3084 2150 3084 
Q 2853 3084 3261 2657 
Q 3669 2231 3669 1497 
Q 3669 778 3244 343 
Q 2819 -91 2113 -91 
Q 1303 -91 875 529 
Q 447 1150 447 2328 
Q 447 3434 972 4092 
Q 1497 4750 2381 4750 
Q 2619 4750 2861 4703 
Q 3103 4656 3366 4563 
z
" transform="scale(0.015625)"/>
       </defs>
       <use xlink:href="#DejaVuSans-30"/>
       <use xlink:href="#DejaVuSans-2e" transform="translate(63.623047 0)"/>
       <use xlink:href="#DejaVuSans-36" transform="translate(95.410156 0)"/>
      </g>
     </g>
    </g>
    <g id="xtick_5">
     <g id="line2d_9">
      <path d="M 387.097832 279.811563 
L 387.097832 22.318125 
" clip-path="url(#pa831cfc3d2)" style="fill: none; stroke: #b0b0b0; stroke-opacity: 0.3; stroke-width: 0.5; stroke-linecap: square"/>
     </g>
     <g id="line2d_10">
      <g>
       <use xlink:href="#mc7e90219a9" x="387.097832" y="279.811563" style="stroke: #000000; stroke-width: 0.8"/>
      </g>
     </g>
     <g id="text_5">
      <!-- 0.8 -->
      <g transform="translate(379.941426 293.650156) scale(0.09 -0.09)">
       <defs>
        <path id="DejaVuSans-38" d="M 2034 2216 
Q 1584 2216 1326 1975 
Q 1069 1734 1069 1313 
Q 1069 891 1326 650 
Q 1584 409 2034 409 
Q 2484 409 2743 651 
Q 3003 894 3003 1313 
Q 3003 1734 2745 1975 
Q 2488 2216 2034 2216 
z
M 1403 2484 
Q 997 2584 770 2862 
Q 544 3141 544 3541 
Q 544 4100 942 4425 
Q 1341 4750 2034 4750 
Q 2731 4750 3128 4425 
Q 3525 4100 3525 3541 
Q 3525 3141 3298 2862 
Q 3072 2584 2669 2484 
Q 3125 2378 3379 2068 
Q 3634 1759 3634 1313 
Q 3634 634 3220 271 
Q 2806 -91 2034 -91 
Q 1263 -91 848 271 
Q 434 634 434 1313 
Q 434 1759 690 2068 
Q 947 2378 1403 2484 
z
M 1172 3481 
Q 1172 3119 1398 2916 
Q 1625 2713 2034 2713 
Q 2441 2713 2670 2916 
Q 2900 3119 2900 3481 
Q 2900 3844 2670 4047 
Q 2441 4250 2034 4250 
Q 1625 4250 1398 4047 
Q 1172 3844 1172 3481 
z
" transform="scale(0.015625)"/>
       </defs>
       <use xlink:href="#DejaVuSans-30"/>
       <use xlink:href="#DejaVuSans-2e" transform="translate(63.623047 0)"/>
       <use xlink:href="#DejaVuSans-38" transform="translate(95.410156 0)"/>
      </g>
     </g>
    </g>
    <g id="xtick_6">
     <g id="line2d_11">
      <path d="M 469.263438 279.811563 
L 469.263438 22.318125 
" clip-path="url(#pa831cfc3d2)" style="fill: none; stroke: #b0b0b0; stroke-opacity: 0.3; stroke-width: 0.5; stroke-linecap: square"/>
     </g>
     <g id="line2d_12">
      <g>
       <use xlink:href="#mc7e90219a9" x="469.263438" y="279.811563" style="stroke: #000000; stroke-width: 0.8"/>
      </g>
     </g>
     <g id="text_6">
      <!-- 1.0 -->
      <g transform="translate(462.107031 293.650156) scale(0.09 -0.09)">
       <defs>
        <path id="DejaVuSans-31" d="M 794 531 
L 1825 531 
L 1825 4091 
L 703 3866 
L 703 4441 
L 1819 4666 
L 2450 4666 
L 2450 531 
L 3481 531 
L 3481 0 
L 794 0 
L 794 531 
z
" transform="scale(0.015625)"/>
       </defs>
       <use xlink:href="#DejaVuSans-31"/>
       <use xlink:href="#DejaVuSans-2e" transform="translate(63.623047 0)"/>
       <use xlink:href="#DejaVuSans-30" transform="translate(95.410156 0)"/>
      </g>
     </g>
    </g>
    <g id="text_7">
     <!-- položaj (udio slike) -->
     <g transform="translate(219.093906 307.520312) scale(0.1 -0.1)">
      <defs>
       <path id="DejaVuSans-70" d="M 1159 525 
L 1159 -1331 
L 581 -1331 
L 581 3500 
L 1159 3500 
L 1159 2969 
Q 1341 3281 1617 3432 
Q 1894 3584 2278 3584 
Q 2916 3584 3314 3078 
Q 3713 2572 3713 1747 
Q 3713 922 3314 415 
Q 2916 -91 2278 -91 
Q 1894 -91 1617 61 
Q 1341 213 1159 525 
z
M 3116 1747 
Q 3116 2381 2855 2742 
Q 2594 3103 2138 3103 
Q 1681 3103 1420 2742 
Q 1159 2381 1159 1747 
Q 1159 1113 1420 752 
Q 1681 391 2138 391 
Q 2594 391 2855 752 
Q 3116 1113 3116 1747 
z
" transform="scale(0.015625)"/>
       <path id="DejaVuSans-6f" d="M 1959 3097 
Q 1497 3097 1228 2736 
Q 959 2375 959 1747 
Q 959 1119 1226 758 
Q 1494 397 1959 397 
Q 2419 397 2687 759 
Q 2956 1122 2956 1747 
Q 2956 2369 2687 2733 
Q 2419 3097 1959 3097 
z
M 1959 3584 
Q 2709 3584 3137 3096 
Q 3566 2609 3566 1747 
Q 3566 888 3137 398 
Q 2709 -91 1959 -91 
Q 1206 -91 779 398 
Q 353 888 353 1747 
Q 353 2609 779 3096 
Q 1206 3584 1959 3584 
z
" transform="scale(0.015625)"/>
       <path id="DejaVuSans-6c" d="M 603 4863 
L 1178 4863 
L 1178 0 
L 603 0 
L 603 4863 
z
" transform="scale(0.015625)"/>
       <path id="DejaVuSans-17e" d="M 353 3500 
L 3084 3500 
L 3084 2975 
L 922 459 
L 3084 459 
L 3084 0 
L 275 0 
L 275 525 
L 2438 3041 
L 353 3041 
L 353 3500 
z
M 1457 3944 
L 691 5119 
L 1126 5119 
L 1688 4353 
L 2251 5119 
L 2685 5119 
L 1919 3944 
L 1457 3944 
z
" transform="scale(0.015625)"/>
       <path id="DejaVuSans-61" d="M 2194 1759 
Q 1497 1759 1228 1600 
Q 959 1441 959 1056 
Q 959 750 1161 570 
Q 1363 391 1709 391 
Q 2188 391 2477 730 
Q 2766 1069 2766 1631 
L 2766 1759 
L 2194 1759 
z
M 3341 1997 
L 3341 0 
L 2766 0 
L 2766 531 
Q 2569 213 2275 61 
Q 1981 -91 1556 -91 
Q 1019 -91 701 211 
Q 384 513 384 1019 
Q 384 1609 779 1909 
Q 1175 2209 1959 2209 
L 2766 2209 
L 2766 2266 
Q 2766 2663 2505 2880 
Q 2244 3097 1772 3097 
Q 1472 3097 1187 3025 
Q 903 2953 641 2809 
L 641 3341 
Q 956 3463 1253 3523 
Q 1550 3584 1831 3584 
Q 2591 3584 2966 3190 
Q 3341 2797 3341 1997 
z
" transform="scale(0.015625)"/>
       <path id="DejaVuSans-6a" d="M 603 3500 
L 1178 3500 
L 1178 -63 
Q 1178 -731 923 -1031 
Q 669 -1331 103 -1331 
L -116 -1331 
L -116 -844 
L 38 -844 
Q 366 -844 484 -692 
Q 603 -541 603 -63 
L 603 3500 
z
M 603 4863 
L 1178 4863 
L 1178 4134 
L 603 4134 
L 603 4863 
z
" transform="scale(0.015625)"/>
       <path id="DejaVuSans-20" transform="scale(0.015625)"/>
       <path id="DejaVuSans-28" d="M 1984 4856 
Q 1566 4138 1362 3434 
Q 1159 2731 1159 2009 
Q 1159 1288 1364 580 
Q 1569 -128 1984 -844 
L 1484 -844 
Q 1016 -109 783 600 
Q 550 1309 550 2009 
Q 550 2706 781 3412 
Q 1013 4119 1484 4856 
L 1984 4856 
z
" transform="scale(0.015625)"/>
       <path id="DejaVuSans-75" d="M 544 1381 
L 544 3500 
L 1119 3500 
L 1119 1403 
Q 1119 906 1312 657 
Q 1506 409 1894 409 
Q 2359 409 2629 706 
Q 2900 1003 2900 1516 
L 2900 3500 
L 3475 3500 
L 3475 0 
L 2900 0 
L 2900 538 
Q 2691 219 2414 64 
Q 2138 -91 1772 -91 
Q 1169 -91 856 284 
Q 544 659 544 1381 
z
M 1991 3584 
L 1991 3584 
z
" transform="scale(0.015625)"/>
       <path id="DejaVuSans-64" d="M 2906 2969 
L 2906 4863 
L 3481 4863 
L 3481 0 
L 2906 0 
L 2906 525 
Q 2725 213 2448 61 
Q 2172 -91 1784 -91 
Q 1150 -91 751 415 
Q 353 922 353 1747 
Q 353 2572 751 3078 
Q 1150 3584 1784 3584 
Q 2172 3584 2448 3432 
Q 2725 3281 2906 2969 
z
M 947 1747 
Q 947 1113 1208 752 
Q 1469 391 1925 391 
Q 2381 391 2643 752 
Q 2906 1113 2906 1747 
Q 2906 2381 2643 2742 
Q 2381 3103 1925 3103 
Q 1469 3103 1208 2742 
Q 947 2381 947 1747 
z
" transform="scale(0.015625)"/>
       <path id="DejaVuSans-69" d="M 603 3500 
L 1178 3500 
L 1178 0 
L 603 0 
L 603 3500 
z
M 603 4863 
L 1178 4863 
L 1178 4134 
L 603 4134 
L 603 4863 
z
" transform="scale(0.015625)"/>
       <path id="DejaVuSans-73" d="M 2834 3397 
L 2834 2853 
Q 2591 2978 2328 3040 
Q 2066 3103 1784 3103 
Q 1356 3103 1142 2972 
Q 928 2841 928 2578 
Q 928 2378 1081 2264 
Q 1234 2150 1697 2047 
L 1894 2003 
Q 2506 1872 2764 1633 
Q 3022 1394 3022 966 
Q 3022 478 2636 193 
Q 2250 -91 1575 -91 
Q 1294 -91 989 -36 
Q 684 19 347 128 
L 347 722 
Q 666 556 975 473 
Q 1284 391 1588 391 
Q 1994 391 2212 530 
Q 2431 669 2431 922 
Q 2431 1156 2273 1281 
Q 2116 1406 1581 1522 
L 1381 1569 
Q 847 1681 609 1914 
Q 372 2147 372 2553 
Q 372 3047 722 3315 
Q 1072 3584 1716 3584 
Q 2034 3584 2315 3537 
Q 2597 3491 2834 3397 
z
" transform="scale(0.015625)"/>
       <path id="DejaVuSans-6b" d="M 581 4863 
L 1159 4863 
L 1159 1991 
L 2875 3500 
L 3609 3500 
L 1753 1863 
L 3688 0 
L 2938 0 
L 1159 1709 
L 1159 0 
L 581 0 
L 581 4863 
z
" transform="scale(0.015625)"/>
       <path id="DejaVuSans-65" d="M 3597 1894 
L 3597 1613 
L 953 1613 
Q 991 1019 1311 708 
Q 1631 397 2203 397 
Q 2534 397 2845 478 
Q 3156 559 3463 722 
L 3463 178 
Q 3153 47 2828 -22 
Q 2503 -91 2169 -91 
Q 1331 -91 842 396 
Q 353 884 353 1716 
Q 353 2575 817 3079 
Q 1281 3584 2069 3584 
Q 2775 3584 3186 3129 
Q 3597 2675 3597 1894 
z
M 3022 2063 
Q 3016 2534 2758 2815 
Q 2500 3097 2075 3097 
Q 1594 3097 1305 2825 
Q 1016 2553 972 2059 
L 3022 2063 
z
" transform="scale(0.015625)"/>
       <path id="DejaVuSans-29" d="M 513 4856 
L 1013 4856 
Q 1481 4119 1714 3412 
Q 1947 2706 1947 2009 
Q 1947 1309 1714 600 
Q 1481 -109 1013 -844 
L 513 -844 
Q 928 -128 1133 580 
Q 1338 1288 1338 2009 
Q 1338 2731 1133 3434 
Q 928 4138 513 4856 
z
" transform="scale(0.015625)"/>
      </defs>
      <use xlink:href="#DejaVuSans-70"/>
      <use xlink:href="#DejaVuSans-6f" transform="translate(63.476562 0)"/>
      <use xlink:href="#DejaVuSans-6c" transform="translate(124.658203 0)"/>
      <use xlink:href="#DejaVuSans-6f" transform="translate(152.441406 0)"/>
      <use xlink:href="#DejaVuSans-17e" transform="translate(213.623047 0)"/>
      <use xlink:href="#DejaVuSans-61" transform="translate(266.113281 0)"/>
      <use xlink:href="#DejaVuSans-6a" transform="translate(327.392578 0)"/>
      <use xlink:href="#DejaVuSans-20" transform="translate(355.175781 0)"/>
      <use xlink:href="#DejaVuSans-28" transform="translate(386.962891 0)"/>
      <use xlink:href="#DejaVuSans-75" transform="translate(425.976562 0)"/>
      <use xlink:href="#DejaVuSans-64" transform="translate(489.355469 0)"/>
      <use xlink:href="#DejaVuSans-69" transform="translate(552.832031 0)"/>
      <use xlink:href="#DejaVuSans-6f" transform="translate(580.615234 0)"/>
      <use xlink:href="#DejaVuSans-20" transform="translate(641.796875 0)"/>
      <use xlink:href="#DejaVuSans-73" transform="translate(673.583984 0)"/>
      <use xlink:href="#DejaVuSans-6c" transform="translate(725.683594 0)"/>
      <use xlink:href="#DejaVuSans-69" transform="translate(753.466797 0)"/>
      <use xlink:href="#DejaVuSans-6b" transform="translate(781.25 0)"/>
      <use xlink:href="#DejaVuSans-65" transform="translate(835.535156 0)"/>
      <use xlink:href="#DejaVuSans-29" transform="translate(897.058594 0)"/>
     </g>
    </g>
   </g>
   <g id="matplotlib.axis_2">
    <g id="ytick_1">
     <g id="line2d_13">
      <path d="M 42.195625 268.107315 
L 489.6 268.107315 
" clip-path="url(#pa831cfc3d2)" style="fill: none; stroke: #b0b0b0; stroke-opacity: 0.3; stroke-width: 0.5; stroke-linecap: square"/>
     </g>
     <g id="line2d_14">
      <defs>
       <path id="m6a0d50524c" d="M 0 0 
L -3.5 0 
" style="stroke: #000000; stroke-width: 0.8"/>
      </defs>
      <g>
       <use xlink:href="#m6a0d50524c" x="42.195625" y="268.107315" style="stroke: #000000; stroke-width: 0.8"/>
      </g>
     </g>
     <g id="text_8">
      <!-- 0.0 -->
      <g transform="translate(20.882813 271.526612) scale(0.09 -0.09)">
       <use xlink:href="#DejaVuSans-30"/>
       <use xlink:href="#DejaVuSans-2e" transform="translate(63.623047 0)"/>
       <use xlink:href="#DejaVuSans-30" transform="translate(95.410156 0)"/>
      </g>
     </g>
    </g>
    <g id="ytick_2">
     <g id="line2d_15">
      <path d="M 42.195625 221.269971 
L 489.6 221.269971 
" clip-path="url(#pa831cfc3d2)" style="fill: none; stroke: #b0b0b0; stroke-opacity: 0.3; stroke-width: 0.5; stroke-linecap: square"/>
     </g>
     <g id="line2d_16">
      <g>
       <use xlink:href="#m6a0d50524c" x="42.195625" y="221.269971" style="stroke: #000000; stroke-width: 0.8"/>
      </g>
     </g>
     <g id="text_9">
      <!-- 0.2 -->
      <g transform="translate(20.882813 224.689268) scale(0.09 -0.09)">
       <use xlink:href="#DejaVuSans-30"/>
       <use xlink:href="#DejaVuSans-2e" transform="translate(63.623047 0)"/>
       <use xlink:href="#DejaVuSans-32" transform="translate(95.410156 0)"/>
      </g>
     </g>
    </g>
    <g id="ytick_3">
     <g id="line2d_17">
      <path d="M 42.195625 174.432627 
L 489.6 174.432627 
" clip-path="url(#pa831cfc3d2)" style="fill: none; stroke: #b0b0b0; stroke-opacity: 0.3; stroke-width: 0.5; stroke-linecap: square"/>
     </g>
     <g id="line2d_18">
      <g>
       <use xlink:href="#m6a0d50524c" x="42.195625" y="174.432627" style="stroke: #000000; stroke-width: 0.8"/>
      </g>
     </g>
     <g id="text_10">
      <!-- 0.4 -->
      <g transform="translate(20.882813 177.851924) scale(0.09 -0.09)">
       <use xlink:href="#DejaVuSans-30"/>
       <use xlink:href="#DejaVuSans-2e" transform="translate(63.623047 0)"/>
       <use xlink:href="#DejaVuSans-34" transform="translate(95.410156 0)"/>
      </g>
     </g>
    </g>
    <g id="ytick_4">
     <g id="line2d_19">
      <path d="M 42.195625 127.595283 
L 489.6 127.595283 
" clip-path="url(#pa831cfc3d2)" style="fill: none; stroke: #b0b0b0; stroke-opacity: 0.3; stroke-width: 0.5; stroke-linecap: square"/>
     </g>
     <g id="line2d_20">
      <g>
       <use xlink:href="#m6a0d50524c" x="42.195625" y="127.595283" style="stroke: #000000; stroke-width: 0.8"/>
      </g>
     </g>
     <g id="text_11">
      <!-- 0.6 -->
      <g transform="translate(20.882813 131.01458) scale(0.09 -0.09)">
       <use xlink:href="#DejaVuSans-30"/>
       <use xlink:href="#DejaVuSans-2e" transform="translate(63.623047 0)"/>
       <use xlink:href="#DejaVuSans-36" transform="translate(95.410156 0)"/>
      </g>
     </g>
    </g>
    <g id="ytick_5">
     <g id="line2d_21">
      <path d="M 42.195625 80.757939 
L 489.6 80.757939 
" clip-path="url(#pa831cfc3d2)" style="fill: none; stroke: #b0b0b0; stroke-opacity: 0.3; stroke-width: 0.5; stroke-linecap: square"/>
     </g>
     <g id="line2d_22">
      <g>
       <use xlink:href="#m6a0d50524c" x="42.195625" y="80.757939" style="stroke: #000000; stroke-width: 0.8"/>
      </g>
     </g>
     <g id="text_12">
      <!-- 0.8 -->
      <g transform="translate(20.882813 84.177236) scale(0.09 -0.09)">
       <use xlink:href="#DejaVuSans-30"/>
       <use xlink:href="#DejaVuSans-2e" transform="translate(63.623047 0)"/>
       <use xlink:href="#DejaVuSans-38" transform="translate(95.410156 0)"/>
      </g>
     </g>
    </g>
    <g id="ytick_6">
     <g id="line2d_23">
      <path d="M 42.195625 33.920595 
L 489.6 33.920595 
" clip-path="url(#pa831cfc3d2)" style="fill: none; stroke: #b0b0b0; stroke-opacity: 0.3; stroke-width: 0.5; stroke-linecap: square"/>
     </g>
     <g id="line2d_24">
      <g>
       <use xlink:href="#m6a0d50524c" x="42.195625" y="33.920595" style="stroke: #000000; stroke-width: 0.8"/>
      </g>
     </g>
     <g id="text_13">
      <!-- 1.0 -->
      <g transform="translate(20.882813 37.339891) scale(0.09 -0.09)">
       <use xlink:href="#DejaVuSans-31"/>
       <use xlink:href="#DejaVuSans-2e" transform="translate(63.623047 0)"/>
       <use xlink:href="#DejaVuSans-30" transform="translate(95.410156 0)"/>
      </g>
     </g>
    </g>
    <g id="text_14">
     <!-- χ² p-vrijednost -->
     <g transform="translate(14.798438 187.230469) rotate(-90) scale(0.1 -0.1)">
      <defs>
       <path id="DejaVuSans-3c7" d="M 2288 -781 
L 1822 416 
L 863 -1334 
L 184 -1334 
L 1541 1141 
L 972 2613 
Q 819 3006 338 3006 
L 184 3006 
L 184 3500 
L 403 3494 
Q 1209 3472 1413 2950 
L 1875 1753 
L 2834 3503 
L 3513 3503 
L 2156 1028 
L 2725 -444 
Q 2878 -838 3359 -838 
L 3513 -838 
L 3513 -1331 
L 3294 -1325 
Q 2488 -1303 2288 -781 
z
" transform="scale(0.015625)"/>
       <path id="DejaVuSans-b2" d="M 838 2444 
L 2163 2444 
L 2163 2088 
L 294 2088 
L 294 2431 
Q 400 2528 597 2703 
Q 1672 3656 1672 3950 
Q 1672 4156 1509 4282 
Q 1347 4409 1081 4409 
Q 919 4409 728 4354 
Q 538 4300 313 4191 
L 313 4575 
Q 553 4663 761 4706 
Q 969 4750 1147 4750 
Q 1600 4750 1872 4544 
Q 2144 4338 2144 4000 
Q 2144 3566 1109 2678 
Q 934 2528 838 2444 
z
" transform="scale(0.015625)"/>
       <path id="DejaVuSans-2d" d="M 313 2009 
L 1997 2009 
L 1997 1497 
L 313 1497 
L 313 2009 
z
" transform="scale(0.015625)"/>
       <path id="DejaVuSans-76" d="M 191 3500 
L 800 3500 
L 1894 563 
L 2988 3500 
L 3597 3500 
L 2284 0 
L 1503 0 
L 191 3500 
z
" transform="scale(0.015625)"/>
       <path id="DejaVuSans-72" d="M 2631 2963 
Q 2534 3019 2420 3045 
Q 2306 3072 2169 3072 
Q 1681 3072 1420 2755 
Q 1159 2438 1159 1844 
L 1159 0 
L 581 0 
L 581 3500 
L 1159 3500 
L 1159 2956 
Q 1341 3275 1631 3429 
Q 1922 3584 2338 3584 
Q 2397 3584 2469 3576 
Q 2541 3569 2628 3553 
L 2631 2963 
z
" transform="scale(0.015625)"/>
       <path id="DejaVuSans-6e" d="M 3513 2113 
L 3513 0 
L 2938 0 
L 2938 2094 
Q 2938 2591 2744 2837 
Q 2550 3084 2163 3084 
Q 1697 3084 1428 2787 
Q 1159 2491 1159 1978 
L 1159 0 
L 581 0 
L 581 3500 
L 1159 3500 
L 1159 2956 
Q 1366 3272 1645 3428 
Q 1925 3584 2291 3584 
Q 2894 3584 3203 3211 
Q 3513 2838 3513 2113 
z
" transform="scale(0.015625)"/>
       <path id="DejaVuSans-74" d="M 1172 4494 
L 1172 3500 
L 2356 3500 
L 2356 3053 
L 1172 3053 
L 1172 1153 
Q 1172 725 1289 603 
Q 1406 481 1766 481 
L 2356 481 
L 2356 0 
L 1766 0 
Q 1100 0 847 248 
Q 594 497 594 1153 
L 594 3053 
L 172 3053 
L 172 3500 
L 594 3500 
L 594 4494 
L 1172 4494 
z
" transform="scale(0.015625)"/>
      </defs>
      <use xlink:href="#DejaVuSans-3c7"/>
      <use xlink:href="#DejaVuSans-b2" transform="translate(57.763672 0)"/>
      <use xlink:href="#DejaVuSans-20" transform="translate(97.851562 0)"/>
      <use xlink:href="#DejaVuSans-70" transform="translate(129.638672 0)"/>
      <use xlink:href="#DejaVuSans-2d" transform="translate(193.115234 0)"/>
      <use xlink:href="#DejaVuSans-76" transform="translate(226.574219 0)"/>
      <use xlink:href="#DejaVuSans-72" transform="translate(285.753906 0)"/>
      <use xlink:href="#DejaVuSans-69" transform="translate(326.867188 0)"/>
      <use xlink:href="#DejaVuSans-6a" transform="translate(354.650391 0)"/>
      <use xlink:href="#DejaVuSans-65" transform="translate(382.433594 0)"/>
      <use xlink:href="#DejaVuSans-64" transform="translate(443.957031 0)"/>
      <use xlink:href="#DejaVuSans-6e" transform="translate(507.433594 0)"/>
      <use xlink:href="#DejaVuSans-6f" transform="translate(570.8125 0)"/>
      <use xlink:href="#DejaVuSans-73" transform="translate(631.994141 0)"/>
      <use xlink:href="#DejaVuSans-74" transform="translate(684.09375 0)"/>
     </g>
    </g>
   </g>
   <g id="line2d_25">
    <path d="M 62.532187 103.386277 
L 66.629375 204.120665 
L 70.745051 264.641118 
L 74.842239 268.036919 
L 78.957914 268.107222 
L 83.073589 268.107315 
L 87.170777 268.107315 
L 91.286452 268.107315 
L 95.38364 268.107315 
L 99.499315 268.107315 
L 103.61499 268.107315 
L 107.712178 268.107315 
L 111.827853 268.107315 
L 115.925041 268.107315 
L 120.040716 268.107315 
L 124.156392 268.107315 
L 128.253579 268.107315 
L 132.369255 268.107315 
L 136.466443 268.107315 
L 140.582118 268.107315 
L 144.697793 268.107315 
L 148.794981 268.107315 
L 152.910656 268.107315 
L 157.007844 268.107315 
L 161.123519 268.107315 
L 165.239194 268.107315 
L 169.336382 268.107315 
L 173.452057 268.107315 
L 177.549245 268.107315 
L 181.66492 268.107315 
L 185.780596 268.107315 
L 189.877784 268.107315 
L 193.993459 268.107315 
L 198.109545 268.107315 
L 202.206322 268.107315 
L 206.321997 268.107315 
L 210.419185 268.107315 
L 214.53486 268.107315 
L 218.650946 268.107315 
L 222.747723 268.107315 
L 226.863398 268.107315 
L 230.960586 268.107315 
L 235.076261 268.107315 
L 239.192347 268.107315 
L 243.289125 268.107315 
L 247.4048 268.107315 
L 251.501988 268.107315 
L 255.617663 268.107315 
L 259.733749 268.107315 
L 263.830526 268.107315 
L 267.946201 268.107315 
L 272.043389 268.107315 
L 276.159064 268.107315 
L 280.27515 268.107315 
L 284.371927 268.107315 
L 288.487602 268.107315 
L 292.58479 268.107315 
L 296.700465 268.107315 
L 300.816551 268.107315 
L 304.913329 268.107315 
L 309.029004 268.107315 
L 313.126192 268.107315 
L 317.241867 268.107315 
L 321.357953 268.107315 
L 325.45473 268.107315 
L 329.570405 268.107315 
L 333.686491 268.107315 
L 337.783268 268.107315 
L 341.899354 268.107315 
L 345.996131 268.107315 
L 350.111806 268.107315 
L 354.227892 268.107315 
L 358.32467 268.107315 
L 362.440756 268.107315 
L 366.537533 268.107315 
L 370.653208 268.107315 
L 374.769294 268.107315 
L 378.866071 268.107315 
L 382.982157 268.107315 
L 387.078934 268.107315 
L 391.194609 268.107315 
L 395.310695 268.107315 
L 399.407472 268.107315 
L 403.523558 268.107315 
L 407.620335 268.107315 
L 411.736011 268.107315 
L 415.852097 268.107315 
L 419.948874 268.107315 
L 424.06496 268.107315 
L 428.161737 268.107315 
L 432.277412 268.107315 
L 436.393498 268.107315 
L 440.490275 268.107315 
L 444.606361 268.107315 
L 448.703138 268.107315 
L 452.818813 268.107315 
L 456.934899 268.107315 
L 461.031676 268.107315 
L 465.147762 268.107315 
L 469.263438 268.107315 
" clip-path="url(#pa831cfc3d2)" style="fill: none; stroke: #000000; stroke-width: 1.8; stroke-linecap: square"/>
   </g>
   <g id="line2d_26">
    <path d="M 62.532187 34.464236 
L 66.629375 35.151433 
L 70.745051 47.193595 
L 74.842239 64.290444 
L 78.957914 114.945125 
L 83.073589 139.557728 
L 87.170777 174.833648 
L 91.286452 199.998276 
L 95.38364 229.058787 
L 99.499315 249.630592 
L 103.61499 259.213419 
L 107.712178 260.905839 
L 111.827853 264.487866 
L 115.925041 267.285835 
L 120.040716 267.716364 
L 124.156392 267.468782 
L 128.253579 267.259934 
L 132.369255 267.954017 
L 136.466443 268.086894 
L 140.582118 268.102116 
L 144.697793 268.106425 
L 148.794981 268.107175 
L 152.910656 268.107315 
L 157.007844 268.107315 
L 161.123519 268.107315 
L 165.239194 268.107315 
L 169.336382 268.107315 
L 173.452057 268.107315 
L 177.549245 268.107315 
L 181.66492 268.107315 
L 185.780596 268.107315 
L 189.877784 268.107315 
L 193.993459 268.107315 
L 198.109545 268.107315 
L 202.206322 268.107315 
L 206.321997 268.107315 
L 210.419185 268.107315 
L 214.53486 268.107315 
L 218.650946 268.107315 
L 222.747723 268.107315 
L 226.863398 268.107315 
L 230.960586 268.107315 
L 235.076261 268.107315 
L 239.192347 268.107315 
L 243.289125 268.107315 
L 247.4048 268.107315 
L 251.501988 268.107315 
L 255.617663 268.107315 
L 259.733749 268.107315 
L 263.830526 268.107315 
L 267.946201 268.107315 
L 272.043389 268.107315 
L 276.159064 268.107315 
L 280.27515 268.107315 
L 284.371927 268.107315 
L 288.487602 268.107315 
L 292.58479 268.107315 
L 296.700465 268.107315 
L 300.816551 268.107315 
L 304.913329 268.107315 
L 309.029004 268.107315 
L 313.126192 268.107315 
L 317.241867 268.107315 
L 321.357953 268.107315 
L 325.45473 268.107315 
L 329.570405 268.107315 
L 333.686491 268.107315 
L 337.783268 268.107315 
L 341.899354 268.107315 
L 345.996131 268.107315 
L 350.111806 268.107315 
L 354.227892 268.107315 
L 358.32467 268.107315 
L 362.440756 268.107315 
L 366.537533 268.107315 
L 370.653208 268.107315 
L 374.769294 268.107315 
L 378.866071 268.107315 
L 382.982157 268.107315 
L 387.078934 268.107315 
L 391.194609 268.107315 
L 395.310695 268.107315 
L 399.407472 268.107315 
L 403.523558 268.107315 
L 407.620335 268.107315 
L 411.736011 268.107315 
L 415.852097 268.107315 
L 419.948874 268.107315 
L 424.06496 268.107315 
L 428.161737 268.107315 
L 432.277412 268.107315 
L 436.393498 268.107315 
L 440.490275 268.107315 
L 444.606361 268.107315 
L 448.703138 268.107315 
L 452.818813 268.107315 
L 456.934899 268.107315 
L 461.031676 268.107315 
L 465.147762 268.107315 
L 469.263438 268.107315 
" clip-path="url(#pa831cfc3d2)" style="fill: none; stroke: #1f77b4; stroke-width: 1.8; stroke-linecap: square"/>
   </g>
   <g id="line2d_27">
    <path d="M 62.532187 34.022372 
L 66.629375 35.229558 
L 70.745051 34.67847 
L 74.842239 36.806618 
L 78.957914 51.573496 
L 83.073589 63.525777 
L 87.170777 68.27115 
L 91.286452 70.699525 
L 95.38364 75.48752 
L 99.499315 82.808806 
L 103.61499 80.498647 
L 107.712178 81.555953 
L 111.827853 81.439656 
L 115.925041 81.569302 
L 120.040716 81.095214 
L 124.156392 81.184299 
L 128.253579 81.107158 
L 132.369255 80.983226 
L 136.466443 81.224345 
L 140.582118 81.10669 
L 144.697793 81.325888 
L 148.794981 81.673703 
L 152.910656 82.583893 
L 157.007844 81.723631 
L 161.123519 81.993742 
L 165.239194 82.698597 
L 169.336382 83.097698 
L 173.452057 82.34727 
L 177.549245 83.095872 
L 181.66492 82.879905 
L 185.780596 83.136854 
L 189.877784 84.625345 
L 193.993459 89.188754 
L 198.109545 87.905458 
L 202.206322 86.895785 
L 206.321997 89.075267 
L 210.419185 87.495865 
L 214.53486 92.435379 
L 218.650946 89.544062 
L 222.747723 90.284936 
L 226.863398 86.895598 
L 230.960586 88.597105 
L 235.076261 89.616473 
L 239.192347 91.563314 
L 243.289125 92.720946 
L 247.4048 94.25885 
L 251.501988 104.990691 
L 255.617663 113.55593 
L 259.733749 118.902178 
L 263.830526 120.590618 
L 267.946201 122.708134 
L 272.043389 129.847363 
L 276.159064 131.202367 
L 280.27515 136.033639 
L 284.371927 139.234972 
L 288.487602 143.244529 
L 292.58479 144.539957 
L 296.700465 149.396708 
L 300.816551 156.067002 
L 304.913329 159.520928 
L 309.029004 160.27234 
L 313.126192 157.59671 
L 317.241867 154.229807 
L 321.357953 154.103861 
L 325.45473 149.745412 
L 329.570405 142.201509 
L 333.686491 143.507709 
L 337.783268 148.86295 
L 341.899354 145.511597 
L 345.996131 144.645013 
L 350.111806 148.274954 
L 354.227892 146.834378 
L 358.32467 144.916107 
L 362.440756 143.85379 
L 366.537533 145.551316 
L 370.653208 145.193338 
L 374.769294 148.508344 
L 378.866071 149.551178 
L 382.982157 155.980915 
L 387.078934 155.090724 
L 391.194609 156.881503 
L 395.310695 156.740008 
L 399.407472 159.359573 
L 403.523558 161.857737 
L 407.620335 158.10171 
L 411.736011 163.381403 
L 415.852097 166.57674 
L 419.948874 169.04844 
L 424.06496 177.089663 
L 428.161737 182.563075 
L 432.277412 183.117957 
L 436.393498 187.089717 
L 440.490275 190.923915 
L 444.606361 191.474535 
L 448.703138 195.926893 
L 452.818813 200.125721 
L 456.934899 198.090357 
L 461.031676 198.49653 
L 465.147762 202.612409 
L 469.263438 204.986969 
" clip-path="url(#pa831cfc3d2)" style="fill: none; stroke: #d62728; stroke-width: 1.8; stroke-linecap: square"/>
   </g>
   <g id="line2d_28">
    <path d="M 263.849424 279.811563 
L 263.849424 22.318125 
" clip-path="url(#pa831cfc3d2)" style="fill: none; stroke-dasharray: 0.8,1.32; stroke-dashoffset: 0; stroke: #808080; stroke-width: 0.8"/>
   </g>
   <g id="patch_3">
    <path d="M 42.195625 279.811563 
L 42.195625 22.318125 
" style="fill: none; stroke: #000000; stroke-width: 0.8; stroke-linejoin: miter; stroke-linecap: square"/>
   </g>
   <g id="patch_4">
    <path d="M 489.6 279.811563 
L 489.6 22.318125 
" style="fill: none; stroke: #000000; stroke-width: 0.8; stroke-linejoin: miter; stroke-linecap: square"/>
   </g>
   <g id="patch_5">
    <path d="M 42.195625 279.811563 
L 489.6 279.811563 
" style="fill: none; stroke: #000000; stroke-width: 0.8; stroke-linejoin: miter; stroke-linecap: square"/>
   </g>
   <g id="patch_6">
    <path d="M 42.195625 22.318125 
L 489.6 22.318125 
" style="fill: none; stroke: #000000; stroke-width: 0.8; stroke-linejoin: miter; stroke-linecap: square"/>
   </g>
   <g id="text_15">
    <!-- Pozicijski χ² profil (stopa 0.5) -->
    <g transform="translate(179.495 16.318125) scale(0.12 -0.12)">
     <defs>
      <path id="DejaVuSans-50" d="M 1259 4147 
L 1259 2394 
L 2053 2394 
Q 2494 2394 2734 2622 
Q 2975 2850 2975 3272 
Q 2975 3691 2734 3919 
Q 2494 4147 2053 4147 
L 1259 4147 
z
M 628 4666 
L 2053 4666 
Q 2838 4666 3239 4311 
Q 3641 3956 3641 3272 
Q 3641 2581 3239 2228 
Q 2838 1875 2053 1875 
L 1259 1875 
L 1259 0 
L 628 0 
L 628 4666 
z
" transform="scale(0.015625)"/>
      <path id="DejaVuSans-7a" d="M 353 3500 
L 3084 3500 
L 3084 2975 
L 922 459 
L 3084 459 
L 3084 0 
L 275 0 
L 275 525 
L 2438 3041 
L 353 3041 
L 353 3500 
z
" transform="scale(0.015625)"/>
      <path id="DejaVuSans-63" d="M 3122 3366 
L 3122 2828 
Q 2878 2963 2633 3030 
Q 2388 3097 2138 3097 
Q 1578 3097 1268 2742 
Q 959 2388 959 1747 
Q 959 1106 1268 751 
Q 1578 397 2138 397 
Q 2388 397 2633 464 
Q 2878 531 3122 666 
L 3122 134 
Q 2881 22 2623 -34 
Q 2366 -91 2075 -91 
Q 1284 -91 818 406 
Q 353 903 353 1747 
Q 353 2603 823 3093 
Q 1294 3584 2113 3584 
Q 2378 3584 2631 3529 
Q 2884 3475 3122 3366 
z
" transform="scale(0.015625)"/>
      <path id="DejaVuSans-66" d="M 2375 4863 
L 2375 4384 
L 1825 4384 
Q 1516 4384 1395 4259 
Q 1275 4134 1275 3809 
L 1275 3500 
L 2222 3500 
L 2222 3053 
L 1275 3053 
L 1275 0 
L 697 0 
L 697 3053 
L 147 3053 
L 147 3500 
L 697 3500 
L 697 3744 
Q 697 4328 969 4595 
Q 1241 4863 1831 4863 
L 2375 4863 
z
" transform="scale(0.015625)"/>
      <path id="DejaVuSans-35" d="M 691 4666 
L 3169 4666 
L 3169 4134 
L 1269 4134 
L 1269 2991 
Q 1406 3038 1543 3061 
Q 1681 3084 1819 3084 
Q 2600 3084 3056 2656 
Q 3513 2228 3513 1497 
Q 3513 744 3044 326 
Q 2575 -91 1722 -91 
Q 1428 -91 1123 -41 
Q 819 9 494 109 
L 494 744 
Q 775 591 1075 516 
Q 1375 441 1709 441 
Q 2250 441 2565 725 
Q 2881 1009 2881 1497 
Q 2881 1984 2565 2268 
Q 2250 2553 1709 2553 
Q 1456 2553 1204 2497 
Q 953 2441 691 2322 
L 691 4666 
z
" transform="scale(0.015625)"/>
     </defs>
     <use xlink:href="#DejaVuSans-50"/>
     <use xlink:href="#DejaVuSans-6f" transform="translate(56.677734 0)"/>
     <use xlink:href="#DejaVuSans-7a" transform="translate(117.859375 0)"/>
     <use xlink:href="#DejaVuSans-69" transform="translate(170.349609 0)"/>
     <use xlink:href="#DejaVuSans-63" transform="translate(198.132812 0)"/>
     <use xlink:href="#DejaVuSans-69" transform="translate(253.113281 0)"/>
     <use xlink:href="#DejaVuSans-6a" transform="translate(280.896484 0)"/>
     <use xlink:href="#DejaVuSans-73" transform="translate(308.679688 0)"/>
     <use xlink:href="#DejaVuSans-6b" transform="translate(360.779297 0)"/>
     <use xlink:href="#DejaVuSans-69" transform="translate(418.689453 0)"/>
     <use xlink:href="#DejaVuSans-20" transform="translate(446.472656 0)"/>
     <use xlink:href="#DejaVuSans-3c7" transform="translate(478.259766 0)"/>
     <use xlink:href="#DejaVuSans-b2" transform="translate(536.023438 0)"/>
     <use xlink:href="#DejaVuSans-20" transform="translate(576.111328 0)"/>
     <use xlink:href="#DejaVuSans-70" transform="translate(607.898438 0)"/>
     <use xlink:href="#DejaVuSans-72" transform="translate(671.375 0)"/>
     <use xlink:href="#DejaVuSans-6f" transform="translate(710.238281 0)"/>
     <use xlink:href="#DejaVuSans-66" transform="translate(771.419922 0)"/>
     <use xlink:href="#DejaVuSans-69" transform="translate(806.625 0)"/>
     <use xlink:href="#DejaVuSans-6c" transform="translate(834.408203 0)"/>
     <use xlink:href="#DejaVuSans-20" transform="translate(862.191406 0)"/>
     <use xlink:href="#DejaVuSans-28" transform="translate(893.978516 0)"/>
     <use xlink:href="#DejaVuSans-73" transform="translate(932.992188 0)"/>
     <use xlink:href="#DejaVuSans-74" transform="translate(985.091797 0)"/>
     <use xlink:href="#DejaVuSans-6f" transform="translate(1024.300781 0)"/>
     <use xlink:href="#DejaVuSans-70" transform="translate(1085.482422 0)"/>
     <use xlink:href="#DejaVuSans-61" transform="translate(1148.958984 0)"/>
     <use xlink:href="#DejaVuSans-20" transform="translate(1210.238281 0)"/>
     <use xlink:href="#DejaVuSans-30" transform="translate(1242.025391 0)"/>
     <use xlink:href="#DejaVuSans-2e" transform="translate(1305.648438 0)"/>
     <use xlink:href="#DejaVuSans-35" transform="translate(1337.435547 0)"/>
     <use xlink:href="#DejaVuSans-29" transform="translate(1401.058594 0)"/>
    </g>
   </g>
   <g id="legend_1">
    <g id="patch_7">
     <path d="M 408.650625 69.509062 
L 483.3 69.509062 
Q 485.1 69.509062 485.1 67.709062 
L 485.1 28.618125 
Q 485.1 26.818125 483.3 26.818125 
L 408.650625 26.818125 
Q 406.850625 26.818125 406.850625 28.618125 
L 406.850625 67.709062 
Q 406.850625 69.509062 408.650625 69.509062 
z
" style="fill: #ffffff; opacity: 0.8; stroke: #cccccc; stroke-linejoin: miter"/>
    </g>
    <g id="line2d_29">
     <path d="M 410.450625 34.106719 
L 419.450625 34.106719 
L 428.450625 34.106719 
" style="fill: none; stroke: #000000; stroke-width: 1.8; stroke-linecap: square"/>
    </g>
    <g id="text_16">
     <!-- osnovni -->
     <g transform="translate(435.650625 37.256719) scale(0.09 -0.09)">
      <use xlink:href="#DejaVuSans-6f"/>
      <use xlink:href="#DejaVuSans-73" transform="translate(61.181641 0)"/>
      <use xlink:href="#DejaVuSans-6e" transform="translate(113.28125 0)"/>
      <use xlink:href="#DejaVuSans-6f" transform="translate(176.660156 0)"/>
      <use xlink:href="#DejaVuSans-76" transform="translate(237.841797 0)"/>
      <use xlink:href="#DejaVuSans-6e" transform="translate(297.021484 0)"/>
      <use xlink:href="#DejaVuSans-69" transform="translate(360.400391 0)"/>
     </g>
    </g>
    <g id="line2d_30">
     <path d="M 410.450625 47.317031 
L 419.450625 47.317031 
L 428.450625 47.317031 
" style="fill: none; stroke: #1f77b4; stroke-width: 1.8; stroke-linecap: square"/>
    </g>
    <g id="text_17">
     <!-- p1 -->
     <g transform="translate(435.650625 50.467031) scale(0.09 -0.09)">
      <use xlink:href="#DejaVuSans-70"/>
      <use xlink:href="#DejaVuSans-31" transform="translate(63.476562 0)"/>
     </g>
    </g>
    <g id="line2d_31">
     <path d="M 410.450625 60.887344 
L 419.450625 60.887344 
L 428.450625 60.887344 
" style="fill: none; stroke: #d62728; stroke-width: 1.8; stroke-linecap: square"/>
    </g>
    <g id="text_18">
     <!-- poboljšani -->
     <g transform="translate(435.650625 64.037344) scale(0.09 -0.09)">
      <defs>
       <path id="DejaVuSans-62" d="M 3116 1747 
Q 3116 2381 2855 2742 
Q 2594 3103 2138 3103 
Q 1681 3103 1420 2742 
Q 1159 2381 1159 1747 
Q 1159 1113 1420 752 
Q 1681 391 2138 391 
Q 2594 391 2855 752 
Q 3116 1113 3116 1747 
z
M 1159 2969 
Q 1341 3281 1617 3432 
Q 1894 3584 2278 3584 
Q 2916 3584 3314 3078 
Q 3713 2572 3713 1747 
Q 3713 922 3314 415 
Q 2916 -91 2278 -91 
Q 1894 -91 1617 61 
Q 1341 213 1159 525 
L 1159 0 
L 581 0 
L 581 4863 
L 1159 4863 
L 1159 2969 
z
" transform="scale(0.015625)"/>
       <path id="DejaVuSans-161" d="M 2834 3397 
L 2834 2853 
Q 2591 2978 2328 3040 
Q 2066 3103 1784 3103 
Q 1356 3103 1142 2972 
Q 928 2841 928 2578 
Q 928 2378 1081 2264 
Q 1234 2150 1697 2047 
L 1894 2003 
Q 2506 1872 2764 1633 
Q 3022 1394 3022 966 
Q 3022 478 2636 193 
Q 2250 -91 1575 -91 
Q 1294 -91 989 -36 
Q 684 19 347 128 
L 347 722 
Q 666 556 975 473 
Q 1284 391 1588 391 
Q 1994 391 2212 530 
Q 2431 669 2431 922 
Q 2431 1156 2273 1281 
Q 2116 1406 1581 1522 
L 1381 1569 
Q 847 1681 609 1914 
Q 372 2147 372 2553 
Q 372 3047 722 3315 
Q 1072 3584 1716 3584 
Q 2034 3584 2315 3537 
Q 2597 3491 2834 3397 
z
M 1501 3944 
L 736 5119 
L 1170 5119 
L 1733 4353 
L 2295 5119 
L 2729 5119 
L 1964 3944 
L 1501 3944 
z
M 1720 3584 
L 1720 3584 
z
" transform="scale(0.015625)"/>
      </defs>
      <use xlink:href="#DejaVuSans-70"/>
      <use xlink:href="#DejaVuSans-6f" transform="translate(63.476562 0)"/>
      <use xlink:href="#DejaVuSans-62" transform="translate(124.658203 0)"/>
      <use xlink:href="#DejaVuSans-6f" transform="translate(188.134766 0)"/>
      <use xlink:href="#DejaVuSans-6c" transform="translate(249.316406 0)"/>
      <use xlink:href="#DejaVuSans-6a" transform="translate(277.099609 0)"/>
      <use xlink:href="#DejaVuSans-161" transform="translate(304.882812 0)"/>
      <use xlink:href="#DejaVuSans-61" transform="translate(356.982422 0)"/>
      <use xlink:href="#DejaVuSans-6e" transform="translate(418.261719 0)"/>
      <use xlink:href="#DejaVuSans-69" transform="translate(481.640625 0)"/>
     </g>
    </g>
   </g>
  </g>
 </g>
 <defs>
  <clipPath id="pa831cfc3d2">
   <rect x="42.195625" y="22.318125" width="447.404375" height="257.493438"/>
  </clipPath>
 </defs>
</svg>
